<svg width="85" height="91" viewBox="0 0 85 91" fill="none" xmlns="http://www.w3.org/2000/svg">
<path d="M28.1769 55.2005L30.6925 90.8055H21.2433C18.8722 90.8055 16.9152 89.1688 16.4972 86.8328L11.6183 59.6178C14.3878 60.0006 16.7199 60.0397 19.4933 59.4811C22.4542 58.8795 25.2472 57.653 27.5753 55.7077L28.1769 55.2005ZM42.2629 30.5555C47.6301 30.5555 51.9934 26.1922 51.9934 20.825C51.9934 15.9656 48.4153 11.9266 43.7551 11.2078V8.3719C43.7551 4.8446 41.3059 1.0594 37.7199 0.0593977C36.8606 -0.178882 35.9777 0.321118 35.7394 1.1766C35.5012 2.03207 36.0012 2.9188 36.8566 3.1571C37.6535 3.37976 39.9191 4.01257 40.5207 8.4032V11.2509C35.9816 12.0751 32.5285 16.0556 32.5285 20.829C32.5285 26.1923 36.8957 30.5555 42.2629 30.5555ZM53.1649 56.8325C46.8524 61.0356 37.6729 61.0317 31.3559 56.8325L30.6763 56.3794L33.1098 90.8054H51.4148L53.8484 56.3794L53.1649 56.8325ZM73.5479 30.1025C67.5909 26.8955 60.6029 25.1806 53.9149 24.2509L53.8095 24.5712C52.1845 29.5595 47.5204 32.9657 42.2585 32.9657C36.9968 32.9657 32.3327 29.5595 30.7075 24.5712L30.602 24.2509C23.9184 25.1806 16.934 26.8915 10.977 30.0986C5.0434 33.2978 0 38.1884 0 45.2976C0 48.3953 1.1484 51.0749 3.3984 53.1999C9.6093 59.0749 22.0074 59.0983 27.7774 52.0866C28.2579 51.5046 29.1563 51.5046 29.6368 52.0866C35.6446 59.3835 48.8668 59.3835 54.8748 52.0866C55.3553 51.5046 56.2537 51.5007 56.7342 52.0866C58.8436 54.6452 61.7654 56.2428 64.9647 56.985C68.4686 57.7975 72.41 57.5983 75.7967 56.3795C80.7498 54.6022 84.5155 50.8287 84.5155 45.2935C84.5233 38.1919 79.4843 33.3015 73.5465 30.1025L73.5479 30.1025ZM56.9499 55.7045L56.3484 55.2006L53.8328 90.8056H63.282C65.6531 90.8056 67.6101 89.1689 68.0281 86.8329L72.907 59.6179L72.3601 59.696C66.9929 60.4382 61.1529 59.2279 56.9499 55.7045Z" fill="#FFE2B8"/>
</svg>
